<svg xmlns="http://www.w3.org/2000/svg" xmlns:xlink="http://www.w3.org/1999/xlink" width="500" zoomAndPan="magnify" viewBox="0 0 375 112.499997" height="150" preserveAspectRatio="xMidYMid meet" version="1.0"><defs><g/><clipPath id="b9ed1d4e4b"><path d="M 18 0 L 353 0 L 353 112.003906 L 18 112.003906 Z M 18 0 " clip-rule="nonzero"/></clipPath><clipPath id="ed9d98077c"><path d="M 90.417969 53 L 334.308594 53 L 334.308594 76 L 90.417969 76 Z M 90.417969 53 " clip-rule="nonzero"/></clipPath><clipPath id="3c9ddadecc"><path d="M 0.273438 0 L 96 0 L 96 112.003906 L 0.273438 112.003906 Z M 0.273438 0 " clip-rule="nonzero"/></clipPath><clipPath id="4203b5b0c2"><path d="M 0.273438 16 L 49 16 L 49 96 L 0.273438 96 Z M 0.273438 16 " clip-rule="nonzero"/></clipPath><clipPath id="6b76949c66"><rect x="0" width="96" y="0" height="113"/></clipPath><clipPath id="e7af3ad2f2"><rect x="0" width="335" y="0" height="113"/></clipPath></defs><g clip-path="url(#b9ed1d4e4b)"><g transform="matrix(1, 0, 0, 1, 18, 0)"><g clip-path="url(#e7af3ad2f2)"><g clip-path="url(#ed9d98077c)"><path fill="#faf7f0" d="M 92.023438 66.753906 C 91.347656 67.800781 90.4375 66.976562 91.019531 66.058594 C 112.511719 32.261719 125.992188 78.109375 169.199219 74.261719 C 235.730469 68.332031 291.339844 49.421875 332.734375 65.703125 C 335.617188 66.839844 333.585938 69.222656 331.15625 68.109375 C 296.703125 52.347656 232.707031 68.851562 168.914062 75.539062 C 125.6875 80.066406 113.46875 33.511719 92.023438 66.753906 Z M 92.023438 66.753906 " fill-opacity="1" fill-rule="nonzero"/></g><g clip-path="url(#3c9ddadecc)"><g><g clip-path="url(#6b76949c66)"><g clip-path="url(#4203b5b0c2)"><g fill="#faf7f0" fill-opacity="1"><g transform="translate(3.405711, 83.137625)"><g><path d="M 11.640625 -12.640625 C 13.085938 -14.046875 14.648438 -15.546875 16.328125 -17.140625 C 18.015625 -18.742188 19.515625 -20.296875 20.828125 -21.796875 C 22.148438 -23.296875 23.003906 -24.585938 23.390625 -25.671875 C 23.773438 -26.765625 23.398438 -27.492188 22.265625 -27.859375 C 21.597656 -28.066406 20.742188 -27.9375 19.703125 -27.46875 C 18.671875 -27 17.40625 -26 15.90625 -24.46875 C 14.40625 -22.945312 12.617188 -20.722656 10.546875 -17.796875 C 8.484375 -14.878906 6.054688 -11.039062 3.265625 -6.28125 L 1.859375 5.8125 C 1.753906 6.851562 1.300781 7.523438 0.5 7.828125 C -0.300781 8.140625 -1.078125 8.101562 -1.828125 7.71875 C -2.578125 7.332031 -2.925781 6.695312 -2.875 5.8125 C -2.5625 3.019531 -2.222656 -0.335938 -1.859375 -4.265625 C -1.492188 -8.203125 -1.050781 -12.421875 -0.53125 -16.921875 C -0.0195312 -21.421875 0.59375 -25.984375 1.3125 -30.609375 C 2.039062 -35.242188 2.9375 -39.664062 4 -43.875 C 5.0625 -48.09375 6.300781 -51.882812 7.71875 -55.25 C 9.144531 -58.613281 10.785156 -61.289062 12.640625 -63.28125 C 14.503906 -65.269531 16.65625 -66.316406 19.09375 -66.421875 C 20.644531 -66.472656 21.960938 -65.875 23.046875 -64.625 C 24.128906 -63.382812 24.75 -61.535156 24.90625 -59.078125 C 25.0625 -56.628906 24.554688 -53.59375 23.390625 -49.96875 C 22.234375 -46.34375 20.203125 -42.175781 17.296875 -37.46875 C 14.398438 -32.769531 10.421875 -27.570312 5.359375 -21.875 C 5.097656 -20.175781 4.8125 -18.109375 4.5 -15.671875 C 4.1875 -13.242188 3.875 -10.914062 3.5625 -8.6875 C 6.363281 -13.394531 8.941406 -17.363281 11.296875 -20.59375 C 13.648438 -23.832031 15.820312 -26.175781 17.8125 -27.625 C 19.800781 -29.070312 21.625 -29.40625 23.28125 -28.625 C 24.207031 -28.164062 24.828125 -27.328125 25.140625 -26.109375 C 25.453125 -24.890625 25.4375 -23.53125 25.09375 -22.03125 C 24.757812 -20.53125 24.113281 -19.054688 23.15625 -17.609375 C 22.195312 -16.160156 20.929688 -14.945312 19.359375 -13.96875 C 17.785156 -12.988281 15.859375 -12.421875 13.578125 -12.265625 L 20.484375 -8.53125 C 21.003906 -8.320312 21.238281 -7.710938 21.1875 -6.703125 C 21.132812 -5.703125 20.925781 -4.460938 20.5625 -2.984375 C 20.195312 -1.515625 19.804688 0.0195312 19.390625 1.625 C 18.984375 3.226562 18.675781 4.726562 18.46875 6.125 C 18.257812 7.519531 18.285156 8.679688 18.546875 9.609375 C 18.804688 10.546875 19.425781 11.039062 20.40625 11.09375 C 21.75 11.144531 23.492188 9.925781 25.640625 7.4375 C 27.785156 4.957031 30.34375 1.507812 33.3125 -2.90625 C 36.289062 -7.332031 39.644531 -12.441406 43.375 -18.234375 C 43.84375 -18.648438 44.253906 -18.804688 44.609375 -18.703125 C 44.972656 -18.597656 45.050781 -18.414062 44.84375 -18.15625 C 40.8125 -12 37.296875 -6.617188 34.296875 -2.015625 C 31.296875 2.585938 28.671875 6.128906 26.421875 8.609375 C 24.171875 11.097656 22.085938 12.265625 20.171875 12.109375 C 18.515625 12.054688 17.207031 11.523438 16.25 10.515625 C 15.300781 9.503906 14.644531 8.195312 14.28125 6.59375 C 13.914062 4.988281 13.835938 3.28125 14.046875 1.46875 C 14.253906 -0.332031 14.691406 -2.097656 15.359375 -3.828125 C 16.035156 -5.566406 16.914062 -7.054688 18 -8.296875 C 18 -8.296875 17.648438 -8.488281 16.953125 -8.875 C 16.253906 -9.269531 15.453125 -9.722656 14.546875 -10.234375 C 13.640625 -10.753906 12.890625 -11.25 12.296875 -11.71875 C 11.703125 -12.1875 11.484375 -12.492188 11.640625 -12.640625 Z M 5.59375 -23.90625 C 10.238281 -29.4375 13.894531 -34.4375 16.5625 -38.90625 C 19.226562 -43.382812 21.101562 -47.289062 22.1875 -50.625 C 23.28125 -53.96875 23.757812 -56.738281 23.625 -58.9375 C 23.5 -61.132812 22.984375 -62.757812 22.078125 -63.8125 C 21.171875 -64.875 20.046875 -65.351562 18.703125 -65.25 C 17.660156 -65.195312 16.625 -64.332031 15.59375 -62.65625 C 14.5625 -60.976562 13.539062 -58.738281 12.53125 -55.9375 C 11.519531 -53.144531 10.5625 -49.976562 9.65625 -46.4375 C 8.75 -42.894531 7.945312 -39.195312 7.25 -35.34375 C 6.550781 -31.488281 6 -27.675781 5.59375 -23.90625 Z M 5.59375 -23.90625 "/></g></g></g></g><g fill="#faf7f0" fill-opacity="1"><g transform="translate(46.70155, 83.137625)"><g><path d="M 5.515625 -23.75 C 5.304688 -22.09375 5.125 -20.628906 4.96875 -19.359375 C 4.8125 -18.085938 4.628906 -16.804688 4.421875 -15.515625 C 6.703125 -21.304688 9.03125 -25.789062 11.40625 -28.96875 C 13.78125 -32.15625 16.003906 -34.203125 18.078125 -35.109375 C 20.148438 -36.015625 21.832031 -35.953125 23.125 -34.921875 C 24.625 -33.722656 25.59375 -32.023438 26.03125 -29.828125 C 26.46875 -27.628906 26.554688 -25.1875 26.296875 -22.5 C 26.046875 -19.8125 25.632812 -17.070312 25.0625 -14.28125 C 24.488281 -11.488281 23.914062 -8.847656 23.34375 -6.359375 C 22.78125 -3.878906 22.40625 -1.769531 22.21875 -0.03125 C 22.039062 1.695312 22.222656 2.859375 22.765625 3.453125 C 23.316406 4.046875 24.421875 3.851562 26.078125 2.875 C 27.773438 1.832031 29.566406 0.359375 31.453125 -1.546875 C 33.347656 -3.460938 35.175781 -5.503906 36.9375 -7.671875 C 38.695312 -9.847656 40.300781 -11.894531 41.75 -13.8125 C 43.195312 -15.726562 44.332031 -17.226562 45.15625 -18.3125 C 45.3125 -18.46875 45.570312 -18.546875 45.9375 -18.546875 C 46.300781 -18.546875 46.484375 -18.441406 46.484375 -18.234375 C 45.390625 -16.835938 44.117188 -15.179688 42.671875 -13.265625 C 41.222656 -11.347656 39.65625 -9.367188 37.96875 -7.328125 C 36.289062 -5.285156 34.5625 -3.332031 32.78125 -1.46875 C 31 0.382812 29.226562 1.960938 27.46875 3.265625 C 26.125 4.242188 25.078125 4.785156 24.328125 4.890625 C 23.578125 4.992188 22.6875 4.785156 21.65625 4.265625 C 20.613281 3.742188 19.9375 2.707031 19.625 1.15625 C 19.320312 -0.382812 19.234375 -2.242188 19.359375 -4.421875 C 19.484375 -6.597656 19.753906 -8.9375 20.171875 -11.4375 C 20.585938 -13.945312 21.039062 -16.441406 21.53125 -18.921875 C 22.019531 -21.410156 22.421875 -23.710938 22.734375 -25.828125 C 23.046875 -27.953125 23.203125 -29.738281 23.203125 -31.1875 C 23.203125 -32.632812 22.914062 -33.566406 22.34375 -33.984375 C 21 -34.960938 19.1875 -34.640625 16.90625 -33.015625 C 14.632812 -31.390625 12.269531 -28.476562 9.8125 -24.28125 C 7.351562 -20.09375 5.117188 -14.613281 3.109375 -7.84375 L 1.625 0 C 1.269531 1.132812 0.753906 1.78125 0.078125 1.9375 C -0.597656 2.09375 -1.179688 1.9375 -1.671875 1.46875 C -2.160156 1.007812 -2.378906 0.46875 -2.328125 -0.15625 C -2.066406 -2.125 -1.867188 -3.6875 -1.734375 -4.84375 C -1.609375 -6.007812 -1.492188 -7.046875 -1.390625 -7.953125 C -1.285156 -8.859375 -1.171875 -9.84375 -1.046875 -10.90625 C -0.921875 -11.96875 -0.738281 -13.335938 -0.5 -15.015625 C -0.269531 -16.691406 0.078125 -18.925781 0.546875 -21.71875 C 0.804688 -22.757812 1.359375 -23.613281 2.203125 -24.28125 C 3.054688 -24.957031 3.847656 -25.296875 4.578125 -25.296875 C 5.304688 -25.296875 5.617188 -24.78125 5.515625 -23.75 Z M 5.515625 -23.75 "/></g></g></g></g></g></g></g></g></g></svg>